<?xml version="1.0" encoding="utf-8"?>
<!-- Generator: Adobe Illustrator 23.0.0, SVG Export Plug-In . SVG Version: 6.00 Build 0)  -->
<svg version="1.1" id="图层_1" xmlns="http://www.w3.org/2000/svg" xmlns:xlink="http://www.w3.org/1999/xlink" x="0px" y="0px"
	 viewBox="0 0 861.1 220.6" style="enable-background:new 0 0 861.1 220.6;" xml:space="preserve">
<style type="text/css">
	.st0{fill:#FEFEFF;}
	.st1{fill:#FFFFFF;}
</style>
<title>资源 11</title>
<g>
	<g id="图层_1-2">
		<path class="st0" d="M255.8,74.4c0-28.5,16.2-44.7,39.9-44.7s40,16.3,40,44.7s-16.2,45.7-40,45.7S255.8,103,255.8,74.4
			 M314.4,74.4c0-16.8-7.2-26.8-18.7-26.8s-18.5,10-18.5,26.8s7.1,27.7,18.5,27.7S314.4,91.4,314.4,74.4"/>
		<path class="st0" d="M346.4,107.6l11.8-14.4c6.2,5.3,14.3,8.9,21.2,8.9s11.4-2.9,11.4-7.6s-4.8-6.7-12.3-9.9L367.3,80
			c-9.1-3.7-17.7-11.3-17.7-23.9c0-14.7,13.2-26.4,31.7-26.4c10.6,0,20.7,4.1,28.3,11.5l-10.4,13.1c-5.7-4.3-11.1-6.7-17.9-6.7
			s-10.5,2.6-10.5,7.3s5.6,6.7,13.3,9.7l10.9,4.3c10.8,4.4,17.2,11.6,17.2,23.9c0,14.6-12.2,27.3-33.3,27.3
			C366.9,120.1,355.3,115.6,346.4,107.6"/>
		<polygon class="st0" points="426.7,31.3 447.7,31.3 447.7,64.5 476.4,64.5 476.4,31.3 497.2,31.3 497.2,118.5 476.4,118.5 
			476.4,82.7 447.7,82.7 447.7,118.5 426.7,118.5 		"/>
		<path class="st0" d="M509,31.3h21.4l5.5,39.8l3.5,27.6h0.5c1.7-9.3,3.4-18.6,5.2-27.6l8.9-39.8h17.6l9.1,39.8
			c1.8,8.9,3.3,18.2,5,27.6h0.6c1.1-9.4,2.2-18.6,3.3-27.6l5.6-39.8h19.9L600,118.5h-26.3l-7.9-38c-1.4-6.6-2.6-13.7-3.4-20.2h-0.6
			c-1,6.5-2.1,13.6-3.4,20.2l-7.6,38h-25.9L509,31.3z"/>
		<path class="st0" d="M744.5,71.3c-2.7-3-5.8-4.5-9.2-4.5c-3.6,0-7,1.7-9.2,4.5c-2.7,3-4,7.2-4,12.7s1.3,9.7,4,12.7
			c2.3,2.8,5.6,4.4,9.2,4.4c3.4,0,6.5-1.5,9.2-4.5s4-7.2,4-12.7S747.1,74.2,744.5,71.3z M824.2,71.3c-2.3-2.8-5.7-4.5-9.3-4.5
			c-3.4,0-6.5,1.5-9.2,4.5s-4,7.1-4,12.6s1.4,9.7,4,12.7s5.8,4.5,9.2,4.5c3.6-0.1,7-1.7,9.3-4.4c2.6-3,4-7.2,4-12.7
			S826.8,74.3,824.2,71.3z M824.2,71.3c-2.3-2.8-5.7-4.5-9.3-4.5c-3.4,0-6.5,1.5-9.2,4.5s-4,7.1-4,12.6s1.4,9.7,4,12.7
			s5.8,4.5,9.2,4.5c3.6-0.1,7-1.7,9.3-4.4c2.6-3,4-7.2,4-12.7S826.8,74.3,824.2,71.3z M744.5,71.3c-2.7-3-5.8-4.5-9.2-4.5
			c-3.6,0-7,1.7-9.2,4.5c-2.7,3-4,7.2-4,12.7s1.3,9.7,4,12.7c2.3,2.8,5.6,4.4,9.2,4.4c3.4,0,6.5-1.5,9.2-4.5s4-7.2,4-12.7
			S747.1,74.2,744.5,71.3z M744.5,71.3c-2.7-3-5.8-4.5-9.2-4.5c-3.6,0-7,1.7-9.2,4.5c-2.7,3-4,7.2-4,12.7s1.3,9.7,4,12.7
			c2.3,2.8,5.6,4.4,9.2,4.4c3.4,0,6.5-1.5,9.2-4.5s4-7.2,4-12.7S747.1,74.2,744.5,71.3z M824.2,71.3c-2.3-2.8-5.7-4.5-9.3-4.5
			c-3.4,0-6.5,1.5-9.2,4.5s-4,7.1-4,12.6s1.4,9.7,4,12.7s5.8,4.5,9.2,4.5c3.6-0.1,7-1.7,9.3-4.4c2.6-3,4-7.2,4-12.7
			S826.8,74.3,824.2,71.3z M824.2,71.3c-2.3-2.8-5.7-4.5-9.3-4.5c-3.4,0-6.5,1.5-9.2,4.5s-4,7.1-4,12.6s1.4,9.7,4,12.7
			s5.8,4.5,9.2,4.5c3.6-0.1,7-1.7,9.3-4.4c2.6-3,4-7.2,4-12.7S826.8,74.3,824.2,71.3z M744.5,71.3c-2.7-3-5.8-4.5-9.2-4.5
			c-3.6,0-7,1.7-9.2,4.5c-2.7,3-4,7.2-4,12.7s1.3,9.7,4,12.7c2.3,2.8,5.6,4.4,9.2,4.4c3.4,0,6.5-1.5,9.2-4.5s4-7.2,4-12.7
			S747.1,74.2,744.5,71.3z M849.1,9.1H641.5c-6.6,0-12,5.4-12,12v104.7c0,6.6,5.4,12,12,12l0,0h207.6c6.6,0,12-5.4,12-12l0,0V21.1
			C861.1,14.5,855.7,9.1,849.1,9.1z M697.1,118.6h-47.8V31.3h21.3v71.1h26.5V118.6z M767,118.6h-18.5v-10.1c-4.5,7.3-10.5,11-18,11
			s-13.9-3.3-19.3-10s-8-15.1-8-25.5s2.7-18.9,8-25.5s11.9-10.1,19.6-10.1s13.6,3.3,17.7,9.9v-9.1H767V118.6z M839,109.5
			c-5.4,6.7-11.8,10-19.4,10s-13.5-3.7-17.9-11v10.1h-18.5V26.5h18.5v31.8c4.2-6.6,10.1-9.9,17.7-9.9c7.7,0,14.2,3.4,19.6,10.1
			s8,15.2,8,25.5S844.3,102.9,839,109.5z M814.9,66.8c-3.4,0-6.5,1.5-9.2,4.5s-4,7.1-4,12.6s1.4,9.7,4,12.7s5.8,4.5,9.2,4.5
			c3.6-0.1,7-1.7,9.3-4.4c2.6-3,4-7.2,4-12.7s-1.4-9.7-4-12.7C821.9,68.5,818.5,66.8,814.9,66.8z M735.3,66.8c-3.6,0-7,1.7-9.2,4.5
			c-2.7,3-4,7.2-4,12.7s1.3,9.7,4,12.7c2.3,2.8,5.6,4.4,9.2,4.4c3.4,0,6.5-1.5,9.2-4.5s4-7.2,4-12.7s-1.4-9.7-4-12.6
			S738.7,66.8,735.3,66.8L735.3,66.8z M744.5,71.3c-2.7-3-5.8-4.5-9.2-4.5c-3.6,0-7,1.7-9.2,4.5c-2.7,3-4,7.2-4,12.7s1.3,9.7,4,12.7
			c2.3,2.8,5.6,4.4,9.2,4.4c3.4,0,6.5-1.5,9.2-4.5s4-7.2,4-12.7S747.1,74.2,744.5,71.3L744.5,71.3z M824.2,71.3
			c-2.3-2.8-5.7-4.5-9.3-4.5c-3.4,0-6.5,1.5-9.2,4.5s-4,7.1-4,12.6s1.4,9.7,4,12.7s5.8,4.5,9.2,4.5c3.6-0.1,7-1.7,9.3-4.4
			c2.6-3,4-7.2,4-12.7S826.8,74.3,824.2,71.3L824.2,71.3z M824.2,71.3c-2.3-2.8-5.7-4.5-9.3-4.5c-3.4,0-6.5,1.5-9.2,4.5
			s-4,7.1-4,12.6s1.4,9.7,4,12.7s5.8,4.5,9.2,4.5c3.6-0.1,7-1.7,9.3-4.4c2.6-3,4-7.2,4-12.7S826.8,74.3,824.2,71.3L824.2,71.3z
			 M744.5,71.3c-2.7-3-5.8-4.5-9.2-4.5c-3.6,0-7,1.7-9.2,4.5c-2.7,3-4,7.2-4,12.7s1.3,9.7,4,12.7c2.3,2.8,5.6,4.4,9.2,4.4
			c3.4,0,6.5-1.5,9.2-4.5s4-7.2,4-12.7S747.1,74.2,744.5,71.3L744.5,71.3z M744.5,71.3c-2.7-3-5.8-4.5-9.2-4.5c-3.6,0-7,1.7-9.2,4.5
			c-2.7,3-4,7.2-4,12.7s1.3,9.7,4,12.7c2.3,2.8,5.6,4.4,9.2,4.4c3.4,0,6.5-1.5,9.2-4.5s4-7.2,4-12.7S747.1,74.2,744.5,71.3
			L744.5,71.3z M744.5,71.3c-2.7-3-5.8-4.5-9.2-4.5c-3.6,0-7,1.7-9.2,4.5c-2.7,3-4,7.2-4,12.7s1.3,9.7,4,12.7
			c2.3,2.8,5.6,4.4,9.2,4.4c3.4,0,6.5-1.5,9.2-4.5s4-7.2,4-12.7S747.1,74.2,744.5,71.3L744.5,71.3z"/>
		<path class="st0" d="M41,36.9v104.8l36.2,21v-34.3h36.2v76.2l-18.1,10.5L4.7,162.7V57.9L41,36.9z M45.7,28.7l-7.1,4.1l-36.2,21
			L0,55.1v110.3l2.4,1.4l90.5,52.4l2.4,1.4l2.4-1.4l18.1-10.5l2.4-1.4v-83.6H72.5v30.8L45.7,139V28.7z"/>
		<path class="st0" d="M95.3,5.5l90.6,52.4v104.8l-36.2,20.9V78.8l-36.3-20.9v34.2H77.2V16L95.3,5.5z M95.3,0l-2.4,1.4L74.8,11.9
			l-2.3,1.3v83.7h45.7V66.1l26.7,15.5v110.3l7.1-4.1l36.3-21l2.3-1.4V55.1l-2.3-1.3L97.7,1.4L95.3,0z"/>
		<polygon class="st1" points="113.4,57.9 113.4,92.1 77.2,92.1 77.2,10.5 41,31.4 41,141.7 77.2,162.7 77.2,128.4 113.4,128.4 
			113.4,210.1 149.7,189.1 149.7,78.8 		"/>
		<path class="st1" d="M261.7,183.3c0-12.2,6.8-19.3,16.8-19.3s16.7,7.2,16.7,19.3s-6.8,19.6-16.7,19.6S261.7,195.5,261.7,183.3z
			 M287.6,183.3c0-8-3.6-12.8-9.1-12.8s-9.2,4.8-9.2,12.8s3.6,13.2,9.2,13.2S287.6,191.3,287.6,183.3z"/>
		<path class="st1" d="M298.5,173.9h6l0.5,2.9h0.3c2.3-2,5.3-3.6,8.3-3.6c7,0,11.1,5.7,11.1,14.4s-5.8,15.3-12,15.3
			c-2.6-0.1-5.1-1.2-7-3l0.2,4.6v8.6h-7.4V173.9z M317.1,187.7c0-5.4-1.7-8.4-5.6-8.4c-1.9,0-3.7,1-5.6,2.9v12.5
			c1.4,1.3,3.2,2.1,5.1,2.1C314.5,196.8,317.1,193.9,317.1,187.7z"/>
		<path class="st1" d="M325.8,188.1c0-9.2,6.4-14.9,13.2-14.9s11.9,5.7,11.9,13.5c0,1.1-0.1,2.3-0.4,3.4h-17.4
			c0.6,4.7,3.6,7.1,7.8,7.1c2.3,0,4.5-0.7,6.4-2l2.5,4.6c-2.9,2-6.4,3.1-9.9,3.1C332,202.9,325.8,197.4,325.8,188.1z M344.5,185.2
			c0-3.8-1.7-6.3-5.4-6.3s-5.6,2.2-6.1,6.3H344.5z"/>
		<path class="st1" d="M353.5,173.9h6.1l0.5,3.7h0.2c2.5-2.4,5.4-4.4,9.2-4.4c6.1,0,8.8,4.2,8.8,11.4v17.6h-7.5v-16.7
			c0-4.4-1.2-6-4-6s-3.8,1.2-5.9,3.2v19.5h-7.4L353.5,173.9z"/>
		<path class="st1" d="M388.6,197.5l4.3-5.2c2.7,2.5,6.3,4.2,9.5,4.2s6-1.7,6-4.3s-2.3-3.7-5.6-5.1l-5-2.1
			c-3.8-1.6-7.6-4.6-7.6-10.1s5.4-10.9,13-10.9c4.4,0,8.6,1.8,11.7,4.9l-3.8,4.7c-2.2-2-5-3.1-7.9-3.1c-3.3,0-5.5,1.4-5.5,3.9
			s2.7,3.7,5.9,4.9l4.9,2.1c4.6,1.9,7.6,4.8,7.6,10.2s-5.1,11.3-13.8,11.3C397.2,202.9,392.3,201,388.6,197.5z"/>
		<path class="st1" d="M416.8,188.1c0-9.5,6.6-14.9,13.7-14.9s13.6,5.4,13.6,14.9s-6.6,14.8-13.6,14.8S416.8,197.5,416.8,188.1z
			 M436.5,188.1c0-5.4-2.2-8.9-6-8.9s-6.1,3.5-6.1,8.9s2.2,8.8,6.1,8.8S436.5,193.4,436.5,188.1z"/>
		<path class="st1" d="M446.5,191.6v-17.7h7.5v16.7c0,4.4,1.2,6,3.9,6s3.9-1.1,5.8-3.6v-19.1h7.4v28.3H465l-0.5-4h-0.2
			c-2.4,2.9-5.2,4.7-9.1,4.7C449.1,202.9,446.5,198.7,446.5,191.6z"/>
		<path class="st1" d="M475.6,173.9h6.1l0.5,5h0.2c2-3.7,5.1-5.7,8-5.7c1.2-0.1,2.3,0.1,3.4,0.6l-1.4,6.4c-0.9-0.3-1.9-0.5-2.9-0.5
			c-2.2,0-4.9,1.5-6.5,5.6v16.9h-7.4L475.6,173.9z"/>
		<path class="st1" d="M492.4,188.1c0-9.5,6.8-14.9,14.5-14.9c3,0,6,1.1,8.2,3.1l-3.5,4.8c-1.2-1.2-2.7-1.9-4.4-1.9
			c-4.3,0-7.2,3.5-7.2,8.9s2.9,8.8,7,8.8c2.1-0.1,4.1-0.9,5.6-2.3l2.9,4.9c-2.6,2.2-5.9,3.4-9.3,3.4
			C498.4,202.9,492.4,197.5,492.4,188.1z"/>
		<path class="st1" d="M515.6,188.1c0-9.2,6.4-14.9,13.2-14.9s11.9,5.7,11.9,13.5c0,1.1-0.1,2.3-0.4,3.4h-17.5
			c0.6,4.7,3.7,7.1,7.9,7.1c2.3,0,4.5-0.7,6.4-2l2.5,4.6c-2.9,2-6.4,3.1-9.9,3.1C521.8,202.9,515.6,197.4,515.6,188.1z M534.3,185.2
			c0-3.8-1.7-6.3-5.4-6.3s-5.6,2.2-6.2,6.3H534.3z"/>
		<path class="st1" d="M551.9,164.8h7.5v14.7h14.2v-14.7h7.4v37.4h-7.4V186h-14.2v16.2h-7.5V164.8z"/>
		<path class="st1" d="M584.7,194.5c0-6,4.9-9.2,16.3-10.4c-0.1-2.8-1.3-5-4.8-5s-5.1,1.2-7.8,2.7l-2.7-4.9
			c3.5-2.3,7.7-3.6,11.9-3.7c7.2,0,10.9,4.3,10.9,12.5v16.5h-6.1l-0.6-3h-0.1c-2.5,2.1-5.3,3.7-8.6,3.7c-4.5,0.2-8.2-3.3-8.4-7.8
			C584.7,194.9,584.7,194.7,584.7,194.5z M601,194.3v-5.7c-6.9,0.9-9.2,2.8-9.2,5.3s1.6,3.2,3.8,3.2S599.3,196.1,601,194.3z"/>
		<path class="st1" d="M612.6,173.9h6.1l0.5,5h0.2c2-3.7,5.1-5.7,8-5.7c1.2-0.1,2.3,0.1,3.4,0.6l-1.4,6.4c-0.9-0.3-1.9-0.5-2.9-0.5
			c-2.2,0-4.9,1.5-6.5,5.6v16.9h-7.4L612.6,173.9z"/>
		<path class="st1" d="M629.5,188.1c0-9.3,5.8-14.9,11.9-14.9c2.7,0,5.4,1.1,7.2,3.1l-0.3-4.5v-10h7.5v40.4h-6l-0.7-2.9H649
			c-2.1,2.2-4.9,3.4-7.9,3.6C634.1,202.9,629.5,197.4,629.5,188.1z M648.3,193.9v-12.5c-1.4-1.4-3.3-2.1-5.2-2.1
			c-3.2,0-5.9,3-5.9,8.7s2.1,8.8,5.9,8.8C645.2,196.8,647.2,195.7,648.3,193.9L648.3,193.9z"/>
		<path class="st1" d="M657.7,173.9h7.4l3.1,14c0.5,2.7,0.9,5.5,1.4,8.3h0.2c0.6-2.8,1.1-5.6,1.8-8.3l3.4-14h6.6l3.6,14
			c0.6,2.7,1.1,5.5,1.7,8.3h0.3c0.5-2.8,0.8-5.6,1.4-8.3l3.1-14h6.9l-7,28.3h-8.8l-3-12.3c-0.6-2.7-1-5.3-1.6-8.3H678
			c-0.6,3-1,5.6-1.6,8.3l-2.9,12.3H665L657.7,173.9z"/>
		<path class="st1" d="M699.1,194.5c0-6,4.9-9.2,16.3-10.4c-0.1-2.8-1.3-5-4.8-5s-5.2,1.2-7.8,2.7l-2.7-4.9
			c3.5-2.3,7.6-3.6,11.8-3.7c7.2,0,10.9,4.3,10.9,12.5v16.5h-6l-0.6-3h-0.1c-2.5,2.1-5.4,3.7-8.6,3.7c-4.4,0.2-8.2-3.2-8.4-7.6
			C699.1,195,699.1,194.8,699.1,194.5z M715.4,194.3v-5.7c-6.9,0.9-9.2,2.8-9.2,5.3s1.5,3.2,3.7,3.2S713.6,196.1,715.4,194.3
			L715.4,194.3z"/>
		<path class="st1" d="M726.9,173.9h6.1l0.5,5h0.2c2.1-3.7,5.1-5.7,8.1-5.7c1.1-0.1,2.3,0.1,3.3,0.6l-1.3,6.4
			c-0.9-0.3-1.9-0.5-2.9-0.5c-2.3,0-4.9,1.5-6.6,5.6v16.9h-7.4L726.9,173.9z"/>
		<path class="st1" d="M743.8,188.1c0-9.2,6.4-14.9,13.2-14.9s11.8,5.7,11.8,13.5c0,1.1-0.1,2.3-0.3,3.4H751
			c0.6,4.7,3.6,7.1,7.8,7.1c2.3,0,4.5-0.7,6.4-2l2.6,4.6c-3,2-6.4,3.1-10,3.1C749.9,202.9,743.8,197.4,743.8,188.1z M762.4,185.2
			c0-3.8-1.7-6.3-5.3-6.3s-5.6,2.2-6.2,6.3H762.4z"/>
		<path class="st1" d="M780.1,164.8h7.5V196h15.2v6.2h-22.7V164.8z"/>
		<path class="st1" d="M803.8,194.5c0-6,4.9-9.2,16.3-10.4c-0.1-2.8-1.3-5-4.8-5s-5.2,1.2-7.8,2.7l-2.7-4.9
			c3.5-2.3,7.6-3.6,11.8-3.7c7.2,0,10.9,4.3,10.9,12.5v16.5h-6.1l-0.5-3h-0.2c-2.3,2.2-5.3,3.5-8.5,3.7c-4.4,0.2-8.2-3.2-8.4-7.6
			C803.8,195,803.8,194.8,803.8,194.5z M820.1,194.3v-5.7c-6.9,0.9-9.2,2.8-9.2,5.3s1.5,3.2,3.7,3.2S818.3,196.1,820.1,194.3z"/>
		<path class="st1" d="M838.3,199.2h-0.2l-0.6,3h-5.9v-40.4h7.4v14.8c2.1-2.1,4.9-3.3,7.8-3.4c7,0,11.2,5.7,11.2,14.3
			s-5.8,15.4-12,15.4C843,202.8,840.2,201.4,838.3,199.2z M850.3,187.7c0-5.4-1.8-8.4-5.7-8.4c-1.9,0-3.6,1-5.6,2.9v12.5
			c1.4,1.3,3.3,2.1,5.2,2.1C847.6,196.8,850.3,193.9,850.3,187.7z"/>
	</g>
</g>
</svg>
